<svg xmlns="http://www.w3.org/2000/svg" version="1.1" xmlns:xlink="http://www.w3.org/1999/xlink" xmlns:svgjs="http://svgjs.dev/svgjs" width="2000" height="1252" viewBox="0 0 2000 1252"><g transform="matrix(1,0,0,1,-1.2121212121212466,-2.01935483870966)"><svg viewBox="0 0 396 248" data-background-color="#ffffff" preserveAspectRatio="xMidYMid meet" height="1252" width="2000" xmlns="http://www.w3.org/2000/svg" xmlns:xlink="http://www.w3.org/1999/xlink"><g id="tight-bounds" transform="matrix(1,0,0,1,0.2400000000000091,0.4000000000000057)"><svg viewBox="0 0 395.52 247.2" height="247.2" width="395.52"><g><svg></svg></g><g><svg viewBox="0 0 395.52 247.2" height="247.2" width="395.52"><g transform="matrix(1,0,0,1,159.63136026711186,47.215199999999996)"><svg viewBox="0 0 76.25727946577629 152.7696" height="152.7696" width="76.25727946577629"><g><svg viewBox="0 0 76.25727946577629 152.7696" height="152.7696" width="76.25727946577629"><g><svg viewBox="0 0 76.25727946577629 152.7696" height="152.7696" width="76.25727946577629"><g><svg viewBox="0 0 76.25727946577629 152.7696" height="152.7696" width="76.25727946577629"><g id="textblocktransform"><svg viewBox="0 0 76.25727946577629 152.7696" height="152.7696" width="76.25727946577629" id="textblock"><g><svg viewBox="0 0 76.25727946577629 152.7696" height="152.7696" width="76.25727946577629"><g transform="matrix(1,0,0,1,0,0)"><svg width="76.25727946577629" viewBox="1.85 -29.6 14.950000000000001 29.950000000000003" height="152.7696" data-palette-color="#10100f"><path d="M9.15 0.35L9.15 0.35Q6.9 0.35 5.28-0.45 3.65-1.25 2.75-3.13 1.85-5 1.85-8.35L1.85-8.35 1.85-10Q2.65-10 3.48-10 4.3-10 5.05-10L5.05-10 5.05-8.15Q5.05-5.65 5.58-4.28 6.1-2.9 7.03-2.35 7.95-1.8 9.15-1.8L9.15-1.8Q11.1-1.8 12.33-3.03 13.55-4.25 13.55-7.4L13.55-7.4Q13.55-9.65 12.9-10.78 12.25-11.9 10.9-12.58 9.55-13.25 7.6-14.05L7.6-14.05Q6-14.7 4.73-15.63 3.45-16.55 2.75-18.05 2.05-19.55 2.05-21.85L2.05-21.85Q2.05-24.45 2.75-26.18 3.45-27.9 5.05-28.75 6.65-29.6 9.3-29.6L9.3-29.6Q12.75-29.6 14.63-27.88 16.5-26.15 16.5-23L16.5-23 16.5-19.75Q15.75-19.75 14.98-19.75 14.2-19.75 13.4-19.75L13.4-19.75 13.4-22.25Q13.4-24.65 12.38-25.88 11.35-27.1 9.35-27.1L9.35-27.1Q7.15-27.1 6.18-25.83 5.2-24.55 5.2-21.95L5.2-21.95Q5.2-20 5.95-18.88 6.7-17.75 7.9-17.13 9.1-16.5 10.45-16L10.45-16Q12.7-15.15 14.1-14.23 15.5-13.3 16.15-11.85 16.8-10.4 16.8-7.8L16.8-7.8Q16.8-4.75 15.83-2.98 14.85-1.2 13.13-0.43 11.4 0.35 9.15 0.35Z" opacity="1" transform="matrix(1,0,0,1,0,0)" fill="#10100f" class="wordmark-text-0" data-fill-palette-color="primary" id="text-0"></path></svg></g></svg></g></svg></g></svg></g></svg></g></svg></g></svg></g><path d="M341.933 41.215L341.933 0 94.733 0 94.733 247.2 341.933 247.2 341.933 205.985 328.156 205.985 328.156 233.423 108.51 233.423 108.51 13.777 328.156 13.777 328.156 41.215Z" fill="#000000" stroke="transparent" data-fill-palette-color="tertiary"></path></svg></g><defs></defs></svg><rect width="395.52" height="247.2" fill="none" stroke="none" visibility="hidden"></rect></g></svg></g></svg>